<?xml version="1.0" encoding="UTF-8" standalone="no"?>
<svg
   xmlns:dc="http://purl.org/dc/elements/1.1/"
   xmlns:cc="http://creativecommons.org/ns#"
   xmlns:rdf="http://www.w3.org/1999/02/22-rdf-syntax-ns#"
   xmlns:svg="http://www.w3.org/2000/svg"
   xmlns="http://www.w3.org/2000/svg"
   id="svg31"
   version="1.1"
   height="220"
   width="660">
  <metadata
     id="metadata37">
    <rdf:RDF>
      <cc:Work
         rdf:about="">
        <dc:format>image/svg+xml</dc:format>
        <dc:type
           rdf:resource="http://purl.org/dc/dcmitype/StillImage" />
      </cc:Work>
    </rdf:RDF>
  </metadata>
  <defs
     id="defs35" />
  <g
     id="g5">
    <title
       id="title2">background</title>
    <path
       id="canvas_background"
       d="M -1,-1 H 661 V 221 H -1 Z"
       style="fill:none" />
  </g>
  <g
     id="g29">
    <title
       id="title7">Layer 1</title>
    <g
       style="fill:#0189a3"
       id="logo-group"
       transform="matrix(1.2028,0,0,1.2028,-294.0051,-353.82926)">
      <path
         style="stroke-width:0;stroke-miterlimit:2"
         id="path77233"
         d="m 438.87,451.1 h 4.8096 V 413.158 H 438.87 Z"
         stroke-miterlimit="2" />
      <path
         style="stroke-width:0;stroke-miterlimit:2"
         id="path77235"
         d="m 469.35,449.71 -1.1222,-3.7408 c -0.32064,0.21376 -0.85504,0.42752 -1.6032,0.74816 -0.74816,0.32064 -1.6032,0.42752 -2.5117,0.42752 -0.85504,0 -1.5498,-0.21376 -2.1376,-0.69472 -0.64128,-0.42752 -0.96192,-1.1757 -1.0154,-2.2445 v -17.315 h 6.2525 v -3.6874 h -6.2525 v -9.2986 h -4.7027 v 9.2986 h -3.7942 v 3.6874 h 3.7942 v 18.757 c 0,2.0307 0.58784,3.4736 1.8704,4.4355 1.2291,0.96192 2.7254,1.3894 4.4355,1.3894 0.74816,0 1.4429,-0.0534 2.1376,-0.16032 0.69472,-0.10688 1.336,-0.2672 1.9238,-0.48096 0.58784,-0.21376 1.1222,-0.37408 1.6032,-0.58784 0.42752,-0.21376 0.8016,-0.37408 1.1222,-0.5344 z"
         stroke-miterlimit="2" />
      <path
         style="stroke-width:0;stroke-miterlimit:2"
         id="path77237"
         d="m 476.84,424.33 h 4.0614 V 412.734 H 476.84 Z"
         stroke-miterlimit="2" />
      <path
         style="stroke-width:0;stroke-miterlimit:2"
         id="path77239"
         d="m 501.02,451.64 c 3.3667,0 6.0387,-0.74816 8.0694,-2.2979 1.9773,-1.4963 2.9926,-3.5805 2.9926,-6.199 0,-1.1757 -0.2672,-2.1376 -0.69472,-2.9926 -0.42752,-0.8016 -1.1222,-1.4963 -2.0307,-2.1376 -0.90848,-0.58784 -2.0307,-1.1222 -3.4202,-1.5498 -1.3894,-0.42752 -2.9926,-0.90848 -4.8096,-1.336 -1.1757,-0.2672 -2.191,-0.5344 -3.0461,-0.8016 -0.85504,-0.21376 -1.4963,-0.5344 -2.0307,-0.85504 -0.5344,-0.32064 -0.96192,-0.69472 -1.1757,-1.1222 -0.21376,-0.42752 -0.32064,-0.96192 -0.32064,-1.6032 0,-1.6032 0.58784,-2.7254 1.7635,-3.4736 1.1757,-0.74816 2.672,-1.1222 4.3821,-1.1222 1.4963,0 2.9926,0.2672 4.489,0.8016 1.4429,0.5344 2.7789,1.2826 3.9546,2.2979 l 2.1376,-2.8323 c -1.2826,-1.0688 -2.7789,-1.9773 -4.5958,-2.672 -1.817,-0.64128 -3.7942,-1.0154 -5.8784,-1.0154 -1.4963,0 -2.9392,0.21376 -4.2218,0.58784 -1.2826,0.37408 -2.4048,0.90848 -3.3667,1.6566 -0.96192,0.74816 -1.7635,1.6566 -2.2979,2.7254 -0.5344,1.0688 -0.8016,2.2979 -0.8016,3.6874 0,1.1222 0.16032,2.0307 0.5344,2.7789 0.32064,0.74816 0.90848,1.3894 1.7101,1.9238 0.74816,0.5344 1.7635,1.0154 2.9926,1.3894 1.1757,0.42752 2.6186,0.8016 4.3286,1.2291 1.2826,0.32064 2.4582,0.64128 3.4736,0.90848 0.96192,0.32064 1.817,0.64128 2.4582,0.96192 0.64128,0.37408 1.1222,0.8016 1.4429,1.2826 0.32064,0.48096 0.48096,1.0688 0.48096,1.7101 0,1.4963 -0.64128,2.6186 -1.817,3.4202 -1.17572,0.8016 -2.7789,1.1757 -4.8096,1.1757 -1.817,0 -3.5805,-0.2672 -5.1837,-0.90848 -1.6566,-0.64128 -3.3133,-1.5498 -4.9165,-2.8323 l -2.0307,3.153 c 1.5498,1.336 3.4202,2.3514 5.6112,3.0461 2.1376,0.69472 4.3821,1.0154 6.6266,1.0154 z"
         stroke-miterlimit="2" />
      <path
         style="stroke-width:0;stroke-miterlimit:2"
         id="path77241"
         d="m 549.31,427.32 v -4.2752 c -0.21376,0 -0.42751,-0.0534 -0.64128,-0.0534 h -0.90848 c -1.817,0.16032 -3.4736,0.85504 -5.0234,2.0307 -1.6032,1.1757 -2.8323,2.7254 -3.7942,4.6493 v -6.46 h -4.38 v 27.896 h 4.7027 v -17.22 c 0.74816,-2.0307 1.9773,-3.5805 3.7942,-4.7562 1.817,-1.1222 3.9011,-1.7101 6.2525,-1.817 z"
         stroke-miterlimit="2" />
      <path
         style="stroke-width:0;stroke-miterlimit:2"
         id="path77243"
         d="m 569.03,451.64 c 1.3894,0 2.7254,-0.16032 4.008,-0.5344 1.2826,-0.32064 2.4048,-0.8016 3.4736,-1.4429 1.0688,-0.64128 1.9773,-1.3894 2.7789,-2.2445 0.8016,-0.85504 1.4429,-1.7635 1.9238,-2.8323 l -4.0614,-1.1222 c -0.32064,0.74816 -0.74816,1.3894 -1.2826,1.9238 -0.5344,0.58784 -1.1757,1.0688 -1.8704,1.4429 -0.74816,0.42752 -1.4963,0.74816 -2.2979,0.96192 -0.85504,0.21376 -1.6566,0.32064 -2.5117,0.32064 -1.2291,0 -2.4048,-0.21376 -3.4736,-0.69472 -1.0688,-0.42752 -2.0307,-1.0688 -2.8858,-1.9238 -0.85504,-0.8016 -1.5498,-1.7635 -2.0842,-2.9392 -0.5344,-1.1222 -0.85504,-2.4048 -0.96192,-3.7942 h 23.14 c 0,-0.16032 0.0534,-0.42752 0.0534,-0.74816 0,-0.32064 0.0534,-0.64128 0.0534,-1.0688 0,-1.817 -0.37408,-3.6339 -1.0154,-5.344 -0.64128,-1.7101 -1.6032,-3.2598 -2.7789,-4.5424 -1.2291,-1.2826 -2.7254,-2.3514 -4.4355,-3.153 -1.7101,-0.74816 -3.6339,-1.1757 -5.7181,-1.1757 -2.1376,0 -4.0614,0.42752 -5.7715,1.1757 -1.7635,0.74816 -3.2598,1.817 -4.5424,3.0995 -1.2826,1.336 -2.2445,2.8858 -2.9392,4.5958 -0.69472,1.7635 -1.0154,3.6339 -1.0154,5.5578 0,1.9773 0.32064,3.8477 1.0154,5.6112 0.69472,1.7635 1.6566,3.3133 2.9392,4.5958 1.2291,1.336 2.7254,2.4048 4.489,3.153 1.7101,0.74816 3.6339,1.1222 5.7715,1.1222 z m 9.5658,-16.353 h -18.918 c 0.10688,-1.2826 0.37408,-2.5117 0.90848,-3.6339 0.5344,-1.0688 1.1757,-2.0307 2.0307,-2.8323 0.85504,-0.8016 1.817,-1.4429 2.9392,-1.8704 1.0688,-0.42752 2.2445,-0.69472 3.527,-0.69472 1.2291,0 2.4048,0.2672 3.527,0.69472 1.0688,0.42752 2.0307,1.0688 2.8858,1.817 0.85505,0.8016 1.5498,1.7635 2.0842,2.8858 0.5344,1.1222 0.90848,2.3514 1.0154,3.6339 z"
         stroke-miterlimit="2" />
      <path
         style="stroke-width:0;stroke-miterlimit:2"
         id="path77245"
         d="m 598.81,451.64 c 2.1376,0 4.1683,-0.42752 6.0922,-1.2826 1.9238,-0.85504 3.4736,-2.1376 4.7562,-3.8477 l 0.10688,1.9773 c 0.10688,0.8016 0.42752,1.4963 0.96192,2.0307 0.5344,0.5344 1.2826,0.8016 2.2445,0.8016 0.32064,0 0.69472,0 1.0154,-0.0534 0.32064,0 0.69472,-0.0534 1.2291,-0.16032 v -4.0614 c -1.0154,0 -1.4963,-0.58784 -1.4963,-1.7101 v -11.39 c 0,-3.527 -1.0688,-6.3059 -3.0995,-8.2832 -2.0307,-1.9238 -4.9165,-2.9392 -8.5504,-2.9392 -3.6339,0 -7.2678,1.2291 -10.848,3.6339 l 1.5498,3.0461 c 3.0995,-2.1376 6.0387,-3.2598 8.871,-3.2598 2.3514,0 4.1683,0.69472 5.4509,1.9773 1.2826,1.28258 1.9238,3.0995 1.9238,5.344 v 2.2445 c -1.0688,-0.42752 -2.2979,-0.74816 -3.6874,-1.0154 -1.3894,-0.21376 -2.7789,-0.37408 -4.1149,-0.37408 -1.7101,0 -3.3133,0.21376 -4.7562,0.64128 -1.4429,0.42752 -2.672,1.0154 -3.7408,1.7635 -1.0688,0.74816 -1.8704,1.6566 -2.4048,2.7254 -0.58784,1.0688 -0.85504,2.191 -0.85504,3.4736 0,1.2826 0.21376,2.4048 0.69472,3.4736 0.48096,1.0688 1.1222,1.9773 1.9773,2.7254 0.85504,0.8016 1.817,1.4429 2.9926,1.8704 1.1222,0.42752 2.3514,0.64128 3.6874,0.64128 z m 1.2291,-3.527 c -0.85504,0 -1.6566,-0.10688 -2.4048,-0.42752 -0.74816,-0.2672 -1.4429,-0.64128 -1.9773,-1.1757 -0.5344,-0.48096 -0.96192,-1.0688 -1.2826,-1.7635 -0.32064,-0.64128 -0.42752,-1.3894 -0.42752,-2.191 0,-1.6032 0.69472,-2.8858 2.191,-3.9011 1.4963,-0.96192 3.4202,-1.4963 5.7715,-1.4963 2.4582,0 4.8096,0.48096 7.1075,1.336 v 4.1149 c 0,0.74816 -0.37408,1.4429 -1.0154,2.0842 -0.74816,1.0688 -1.8704,1.8704 -3.3133,2.5117 -1.4429,0.64128 -2.9926,0.90848 -4.6493,0.90848 z"
         stroke-miterlimit="2" />
      <path
         style="stroke-width:0;stroke-miterlimit:2"
         id="path77247"
         d="m 624.74,412.09 v 33.507 c 0,1.8704 0.48096,3.3133 1.5498,4.3286 1.0688,1.0688 2.5117,1.5498 4.3286,1.5498 0.8016,0 1.7635,-0.10688 2.8323,-0.32064 1.0688,-0.21376 1.9773,-0.48096 2.7789,-0.8016 l -0.74816,-3.7942 c -0.48096,0.21376 -0.96192,0.37408 -1.4963,0.48096 -0.5344,0.10688 -1.0154,0.16032 -1.3894,0.16032 -1.0154,0 -1.817,-0.2672 -2.3514,-0.85504 -0.5344,-0.58784 -0.8016,-1.3894 -0.8016,-2.4582 V 412.09 Z"
         stroke-miterlimit="2" />
      <path
         style="stroke-width:0;stroke-miterlimit:2"
         id="path77249"
         d="m 667.56,451.64 c 1.3894,0 2.7254,-0.16032 4.008,-0.5344 1.2826,-0.32064 2.4048,-0.8016 3.4736,-1.4429 1.0688,-0.64128 1.9773,-1.3894 2.7789,-2.2445 0.8016,-0.85504 1.4429,-1.7635 1.9238,-2.8323 l -4.0614,-1.1222 c -0.32065,0.74816 -0.74817,1.3894 -1.2826,1.9238 -0.5344,0.58784 -1.1757,1.0688 -1.8704,1.4429 -0.74815,0.42752 -1.4963,0.74816 -2.2979,0.96192 -0.85504,0.21376 -1.6566,0.32064 -2.5117,0.32064 -1.2291,0 -2.4048,-0.21376 -3.4736,-0.69472 -1.0688,-0.42752 -2.0307,-1.0688 -2.8858,-1.9238 -0.85503,-0.8016 -1.5498,-1.7635 -2.0842,-2.9392 -0.5344,-1.1222 -0.85504,-2.4048 -0.96192,-3.7942 h 23.14 c 0,-0.16032 0.0534,-0.42752 0.0534,-0.74816 0,-0.32064 0.0534,-0.64128 0.0534,-1.0688 0,-1.817 -0.37409,-3.6339 -1.0154,-5.344 -0.64128,-1.7101 -1.6032,-3.2598 -2.7789,-4.5424 -1.2291,-1.2826 -2.7254,-2.3514 -4.4355,-3.153 -1.7101,-0.74816 -3.6339,-1.1757 -5.7181,-1.1757 -2.1376,0 -4.0614,0.42752 -5.7715,1.1757 -1.7635,0.74816 -3.2598,1.817 -4.5424,3.0995 -1.2826,1.336 -2.2445,2.8858 -2.9392,4.5958 -0.69473,1.7635 -1.0154,3.6339 -1.0154,5.5578 0,1.9773 0.32064,3.8477 1.0154,5.6112 0.69472,1.7635 1.6566,3.3133 2.9392,4.5958 1.2291,1.336 2.7254,2.4048 4.489,3.153 1.7101,0.74816 3.6339,1.1222 5.7715,1.1222 z m 9.5658,-16.353 h -18.918 c 0.10688,-1.2826 0.37409,-2.5117 0.90848,-3.6339 0.5344,-1.0688 1.1757,-2.0307 2.0307,-2.8323 0.85504,-0.8016 1.817,-1.4429 2.9392,-1.8704 1.0688,-0.42752 2.2445,-0.69472 3.527,-0.69472 1.2291,0 2.4048,0.2672 3.527,0.69472 1.0688,0.42752 2.0307,1.0688 2.8858,1.817 0.85504,0.8016 1.5498,1.7635 2.0842,2.8858 0.5344,1.1222 0.90848,2.3514 1.0154,3.6339 z"
         stroke-miterlimit="2" />
      <path
         style="stroke-width:0;stroke-miterlimit:2"
         id="path77251"
         d="m 697.34,451.64 c 2.1376,0 4.1683,-0.42752 6.0922,-1.2826 1.9238,-0.85504 3.4736,-2.1376 4.7562,-3.8477 l 0.10688,1.9773 c 0.10688,0.8016 0.42752,1.4963 0.96192,2.0307 0.5344,0.5344 1.2826,0.8016 2.2445,0.8016 0.32064,0 0.69472,0 1.0154,-0.0534 0.32064,0 0.69472,-0.0534 1.2291,-0.16032 v -4.0614 c -1.0154,0 -1.4963,-0.58784 -1.4963,-1.7101 v -11.39 c 0,-3.527 -1.0688,-6.3059 -3.0995,-8.2832 -2.0307,-1.9238 -4.9165,-2.9392 -8.5504,-2.9392 -3.6339,0 -7.2678,1.2291 -10.848,3.6339 l 1.5498,3.0461 c 3.0995,-2.1376 6.0387,-3.2598 8.871,-3.2598 2.3514,0 4.1683,0.69472 5.4509,1.9773 1.2826,1.28258 1.9238,3.0995 1.9238,5.344 v 2.2445 c -1.0688,-0.42752 -2.2979,-0.74816 -3.6874,-1.0154 -1.3894,-0.21376 -2.7789,-0.37408 -4.1149,-0.37408 -1.7101,0 -3.3133,0.21376 -4.7562,0.64128 -1.4429,0.42752 -2.672,1.0154 -3.7408,1.7635 -1.0688,0.74816 -1.8704,1.6566 -2.4048,2.7254 -0.58784,1.0688 -0.85504,2.191 -0.85504,3.4736 0,1.2826 0.21376,2.4048 0.69472,3.4736 0.48096,1.0688 1.1222,1.9773 1.9773,2.7254 0.85504,0.8016 1.817,1.4429 2.9926,1.8704 1.1222,0.42752 2.3514,0.64128 3.6874,0.64128 z m 1.2291,-3.527 c -0.85504,0 -1.6566,-0.10688 -2.4048,-0.42752 -0.74816,-0.2672 -1.4429,-0.64128 -1.9773,-1.1757 -0.5344,-0.48096 -0.96192,-1.0688 -1.2826,-1.7635 -0.32064,-0.64128 -0.42752,-1.3894 -0.42752,-2.191 0,-1.6032 0.69472,-2.8858 2.191,-3.9011 1.4963,-0.96192 3.4202,-1.4963 5.7715,-1.4963 2.4582,0 4.8096,0.48096 7.1075,1.336 v 4.1149 c 0,0.74816 -0.37408,1.4429 -1.0154,2.0842 -0.74816,1.0688 -1.8704,1.8704 -3.3133,2.5117 -1.4429,0.64128 -2.9926,0.90848 -4.6493,0.90848 z"
         stroke-miterlimit="2" />
      <path
         style="stroke-width:0;stroke-miterlimit:2"
         id="path77253"
         d="m 720.97,448.05 v 3.0461 h 22.926 v -3.4202 H 726.1 l 17.742,-21.429 v -3.0461 h -22.391 v 3.4202 h 17.368 z"
         stroke-miterlimit="2" />
      <path
         style="stroke-width:0;stroke-miterlimit:2"
         id="path77255"
         d="m 754.09,458.69 v 4.1683 c 0.48096,0.10688 0.90848,0.21376 1.2291,0.21376 0.32064,0.0534 0.69472,0.0534 1.0154,0.0534 2.0307,0 3.5805,-0.42752 4.7562,-1.3894 1.1757,-0.96192 1.9773,-2.0307 2.5117,-3.3133 l 13.574,-35.217 h -4.489 l -8.6573,23.674 -9.5123,-23.674 h -4.863 l 11.81,27.896 c -0.64128,1.6566 -1.1757,2.9926 -1.6032,4.008 -0.42752,1.0154 -0.85504,1.817 -1.1757,2.3514 -0.32064,0.58784 -0.69472,0.96192 -1.0154,1.1757 -0.32064,0.21376 -0.69472,0.2672 -1.1222,0.2672 -0.2672,0 -0.64128,0 -1.0688,-0.0534 -0.48096,0 -0.96192,-0.0534 -1.3894,-0.16032 z"
         stroke-miterlimit="2" />
      <path
         style="stroke-width:0;stroke-miterlimit:2"
         id="path77258"
         d="m 459.79,366.8 v 23.086 q -1.3226,0.36072 -4.2084,0.72144 -2.7655,0.36072 -5.531,0.36072 -2.7655,0 -4.9298,-0.48096 -2.0441,-0.36072 -3.487,-1.4429 -1.3226,-1.0822 -2.0441,-3.006 -0.72144,-1.9238 -0.72144,-5.0501 v -56.633 q 0,-2.525 1.3226,-3.8477 1.4429,-1.4429 3.8477,-2.2846 4.0882,-1.4429 9.499,-2.0441 5.4108,-0.72144 11.543,-0.72144 16.593,0 25.01,6.9739 8.4168,6.9739 8.4168,18.878 0,7.4549 -3.8477,12.745 -3.8477,5.2906 -9.1382,8.1763 4.3286,5.8918 8.537,11.062 4.2084,5.1703 6.6132,9.3787 -1.2024,4.2084 -4.4489,6.493 -3.1262,2.1643 -7.0942,2.1643 -2.6453,0 -4.5691,-0.6012 -1.9238,-0.6012 -3.3667,-1.6834 -1.4429,-1.0822 -2.6453,-2.6453 -1.2024,-1.5631 -2.2846,-3.3667 l -10.1,-16.232 z m 7.5751,-15.992 q 4.5691,0 7.2144,-2.2846 2.6453,-2.4048 2.6453,-6.9739 0,-4.5691 -3.006,-6.8537 -2.8858,-2.4048 -9.2585,-2.4048 -1.8036,0 -2.8858,0.12024 -1.0822,0.12024 -2.4048,0.36072 v 18.036 z"
         stroke-miterlimit="2" />
      <path
         style="stroke-width:0;stroke-miterlimit:2"
         id="path77260"
         d="m 539.6,392.29 q -7.0942,0 -13.226,-1.9238 -6.012,-2.0441 -10.581,-6.012 -4.4489,-3.9679 -7.0942,-9.9799 -2.525,-6.012 -2.525,-14.068 0,-7.9358 2.525,-13.587 2.6453,-5.7715 6.8537,-9.3787 4.2084,-3.7274 9.6192,-5.4108 5.4108,-1.8036 11.062,-1.8036 6.3727,0 11.543,1.9238 5.2906,1.9238 9.018,5.2906 3.8477,3.3667 5.8918,8.0561 2.1643,4.6894 2.1643,10.22 0,4.0882 -2.2846,6.2525 -2.2846,2.1643 -6.3727,2.7655 l -29.699,4.4489 q 1.3226,3.9679 5.4108,6.012 4.0882,1.9238 9.3787,1.9238 4.9298,0 9.2585,-1.2024 4.4489,-1.3226 7.2144,-3.006 1.9238,1.2024 3.2465,3.3667 1.3226,2.1643 1.3226,4.5691 0,5.4108 -5.0501,8.0561 -3.8477,2.0441 -8.6573,2.7655 -4.8096,0.72144 -9.018,0.72144 z m -3.37,-47.25 q -2.8858,0 -5.0501,0.96192 -2.0441,0.96192 -3.3667,2.525 -1.3226,1.4429 -2.0441,3.3667 -0.6012,1.8036 -0.72144,3.7274 l 20.561,-3.3667 q -0.36072,-2.4048 -2.6453,-4.8096 -2.28458,-2.4048 -6.7334,-2.4048 z"
         stroke-miterlimit="2" />
      <path
         style="stroke-width:0;stroke-miterlimit:2"
         id="path77262"
         d="m 599.7,377.38 q 2.0441,0 4.4489,-0.36072 2.525,-0.48096 3.7274,-1.2024 v -9.6192 l -8.6573,0.72144 q -3.3667,0.24048 -5.5311,1.4429 -2.1643,1.2024 -2.1643,3.6072 0,2.4048 1.8036,3.9679 1.9238,1.4429 6.3727,1.4429 z m -0.96194,-47.254 q 6.493,0 11.784,1.3226 5.4108,1.3226 9.1382,4.0882 3.8477,2.6453 5.8918,6.8537 2.0441,4.0882 2.0441,9.7394 v 26.934 q 0,3.1262 -1.8036,5.1703 -1.6834,1.9238 -4.0882,3.3667 -7.8156,4.6894 -22.004,4.6894 -6.3727,0 -11.543,-1.2024 -5.0501,-1.2024 -8.7775,-3.6072 -3.6072,-2.4048 -5.6513,-6.1322 -1.9238,-3.7274 -1.9238,-8.6573 0,-8.2966 4.9298,-12.745 4.9298,-4.4489 15.27,-5.531 l 15.751,-1.6834 v -0.84 q 0,-3.487 -3.1262,-4.9298 -3.006,-1.5631 -8.7775,-1.5631 -4.5691,0 -8.8977,0.96192 -4.3287,0.96192 -7.8156,2.4048 -1.5631,-1.0822 -2.6453,-3.2465 -1.0822,-2.2846 -1.0822,-4.6894 0,-3.1262 1.4429,-4.9298 1.5631,-1.9238 4.6894,-3.2465 3.4869,-1.3226 8.1763,-1.9238 4.8096,-0.6012 9.018,-0.6012 z"
         stroke-miterlimit="2" />
      <path
         style="stroke-width:0;stroke-miterlimit:2"
         id="path77264"
         d="m 642.25,390.37 q -1.9238,-1.6834 -3.1262,-3.9679 -1.0822,-2.2846 -1.0822,-5.1703 0,-2.4048 1.0822,-4.6894 1.2024,-2.4048 2.8858,-4.4489 l 20.681,-24.288 h -22.124 q -0.72144,-1.3226 -1.4429,-3.3667 -0.6012,-2.0441 -0.6012,-4.4489 0,-4.2084 1.8036,-6.012 1.9238,-1.9238 5.0501,-1.9238 h 37.876 q 1.9238,1.6834 3.006,3.9679 1.2024,2.2846 1.2024,5.1703 0,2.4048 -1.2024,4.8096 -1.0822,2.2846 -2.7655,4.3286 l -20.2,24.288 h 23.567 q 0.72144,1.3226 1.3226,3.3667 0.72144,2.0441 0.72144,4.4489 0,4.2084 -1.9238,6.1322 -1.8036,1.8036 -4.9298,1.8036 z"
         stroke-miterlimit="2" />
      <path
         style="stroke-width:0;stroke-miterlimit:2"
         id="path77266"
         d="m 700.02,390.37 q -1.9238,-1.6834 -3.1262,-3.9679 -1.0822,-2.2846 -1.0822,-5.1703 0,-2.4048 1.0822,-4.6894 1.2024,-2.4048 2.8858,-4.4489 l 20.681,-24.288 h -22.124 q -0.72144,-1.3226 -1.4429,-3.3667 -0.6012,-2.0441 -0.6012,-4.4489 0,-4.2084 1.8036,-6.012 1.9238,-1.9238 5.0501,-1.9238 h 37.876 q 1.9238,1.6834 3.006,3.9679 1.2024,2.2846 1.2024,5.1703 0,2.4048 -1.2024,4.8096 -1.0822,2.2846 -2.7655,4.3286 l -20.2,24.288 h 23.567 q 0.72144,1.3226 1.3226,3.3667 0.72144,2.0441 0.72144,4.4489 0,4.2084 -1.9238,6.1322 -1.8036,1.8036 -4.9298,1.8036 z"
         stroke-miterlimit="2" />
      <path
         style="stroke-width:0;stroke-miterlimit:2"
         id="path77268"
         d="m 755.27,315.7 q 0,-4.5691 3.006,-7.6954 3.1262,-3.1262 8.1763,-3.1262 5.0501,0 8.0561,3.1262 3.1262,3.1262 3.1262,7.6954 0,4.5691 -3.1262,7.6954 -3.006,3.1262 -8.0561,3.1262 -5.0501,0 -8.1763,-3.1262 -3.006,-3.1262 -3.006,-7.6954 z m 21.403,74.549 q -1.3226,0.24048 -3.9679,0.6012 -2.525,0.48096 -5.1703,0.48096 -2.6453,0 -4.8096,-0.36072 -2.0441,-0.36072 -3.487,-1.4429 -1.4429,-1.08218 -2.2846,-2.8858 -0.72144,-1.9238 -0.72144,-4.9298 v -48.938 q 1.3226,-0.24048 3.8477,-0.6012 2.6453,-0.48096 5.2906,-0.48096 2.6453,0 4.6894,0.36072 2.1643,0.36072 3.6072,1.4429 1.4429,1.08218 2.1643,3.006 0.84168,1.8036 0.84168,4.8096 z"
         stroke-miterlimit="2" />
      <path
         style="stroke-width:0.75"
         id="icon"
         d="m 302.39,308.89 -0.5838,-0.0112 -0.23852,0.0997 c -0.13094,0.055 -0.33277,0.16012 -0.44828,0.23435 -0.11551,0.0742 -0.29607,0.2306 -0.40115,0.34777 -0.1055,0.11676 -0.24895,0.3261 -0.31901,0.46454 -0.0701,0.13844 -0.15262,0.34569 -0.18348,0.46036 -0.0304,0.11468 -0.0559,0.36071 -0.0563,0.54711 -4.1e-4,0.27355 0.0625,0.6159 0.33027,1.7931 0.18181,0.7998 0.4833,2.13 0.67053,2.9557 0.18682,0.82568 0.50749,2.2422 0.71307,3.1484 0.20517,0.9057 0.52251,2.3039 0.70431,3.1066 0.18223,0.80273 0.5004,2.2101 0.70682,3.1275 0.20641,0.9174 0.39698,1.7431 0.42283,1.8348 0.0258,0.0917 0.0942,0.26063 0.15138,0.3753 0.0575,0.11468 0.17889,0.30608 0.27021,0.42534 0.0909,0.11927 0.29065,0.30233 0.44328,0.40658 0.15303,0.10425 0.39072,0.22935 0.52833,0.27813 0.15304,0.0546 0.39573,0.0967 0.6255,0.10884 0.27272,0.0146 0.44953,8.3e-4 0.64635,-0.0505 0.14929,-0.0388 0.38364,-0.12969 0.52125,-0.20224 0.13761,-0.073 0.36363,-0.24686 0.50207,-0.38698 0.1497,-0.15095 0.30607,-0.36404 0.38489,-0.52417 0.073,-0.14803 0.16346,-0.39031 0.20141,-0.53751 0.0492,-0.1914 0.0621,-0.36362 0.0459,-0.60173 -0.0125,-0.18348 -0.0888,-0.61507 -0.1693,-0.9591 -0.0805,-0.34402 -0.26146,-1.1321 -0.40199,-1.7514 -0.14052,-0.61924 -0.319,-1.4074 -0.39657,-1.7514 -0.0772,-0.34402 -0.23643,-1.0479 -0.35361,-1.5638 -0.1176,-0.51625 -0.27648,-1.2197 -0.35403,-1.5638 -0.0772,-0.34402 -0.25563,-1.1321 -0.39657,-1.7514 -0.141,-0.61807 -0.348,-1.5284 -0.4605,-2.0212 -0.11175,-0.49327 -0.39225,-1.7293 -0.62325,-2.7472 -0.3105,-1.3724 -0.45225,-1.9208 -0.54825,-2.1208 -0.0832,-0.17475 -0.22875,-0.372 -0.4095,-0.55673 -0.21075,-0.21392 -0.3645,-0.32568 -0.61125,-0.44369 l -0.32925,-0.15721 z m 19.309,0.49415 c -0.18431,0.002 -0.42534,0.0284 -0.53585,0.0588 -0.11008,0.0304 -0.30483,0.10633 -0.43242,0.16888 -0.12761,0.0621 -0.3582,0.23227 -0.51249,0.37781 -0.16555,0.15637 -0.33486,0.36654 -0.41283,0.51333 -0.073,0.13635 -1.2502,3.4628 -2.6162,7.3922 -1.3661,3.929 -2.5583,7.3654 -2.6496,7.6372 -0.14678,0.43785 -0.16513,0.53709 -0.16429,0.88612 8.2e-4,0.30692 0.0234,0.45745 0.10258,0.68555 0.0559,0.16054 0.16138,0.3853 0.23435,0.49914 0.073,0.11343 0.2427,0.30858 0.37739,0.43326 0.13469,0.12427 0.34653,0.27606 0.47079,0.33694 0.12468,0.0609 0.32734,0.13761 0.45036,0.17055 0.12301,0.0325 0.37405,0.0596 0.55753,0.0596 0.18348,0 0.43451,-0.0271 0.55752,-0.0596 0.12302,-0.0329 0.32652,-0.11008 0.45203,-0.17139 0.12552,-0.0613 0.3436,-0.22018 0.48497,-0.35278 0.14136,-0.13261 0.31734,-0.34152 0.39115,-0.46413 0.0734,-0.12259 0.25479,-0.57045 0.4024,-0.99457 0.14762,-0.42451 1.3419,-3.8585 2.6538,-7.6312 l 2.3852,-6.8596 0.0217,-0.35445 c 0.0154,-0.25312 0.002,-0.43076 -0.0467,-0.62091 -0.0375,-0.14637 -0.1251,-0.38531 -0.19474,-0.53126 -0.0801,-0.16722 -0.2231,-0.36112 -0.38823,-0.52667 -0.14386,-0.14386 -0.37447,-0.32151 -0.51208,-0.3949 -0.13803,-0.0738 -0.36112,-0.16263 -0.49581,-0.19765 -0.13469,-0.035 -0.39615,-0.0621 -0.58047,-0.06 z m 43.143,8.2762 c -0.38072,-0.009 -0.88905,-10e-4 -1.1301,0.0175 -0.24061,0.0192 -0.65094,0.0663 -0.91155,0.10467 -0.26062,0.0384 -0.73767,0.13427 -1.0596,0.2135 -0.32234,0.0792 -0.79395,0.21601 -1.0484,0.30399 -0.25437,0.088 -0.6501,0.23978 -0.87945,0.33652 -0.22935,0.0972 -0.59506,0.27188 -0.81315,0.38823 -0.21767,0.11676 -0.54627,0.30399 -0.72975,0.41658 -0.18348,0.11259 -0.49289,0.31943 -0.68805,0.45912 -0.19474,0.1397 -0.50457,0.37613 -0.68805,0.52459 -0.18348,0.14845 -9.7252,9.6555 -21.205,21.127 -11.479,11.471 -21.002,20.969 -21.163,21.107 -0.16055,0.13761 -0.51708,0.42784 -0.7923,0.64468 -0.27522,0.21684 -0.63176,0.48956 -0.7923,0.60674 -0.16055,0.11718 -0.53585,0.37196 -0.834,0.56629 -0.29816,0.19473 -0.75773,0.4758 -1.0216,0.62508 -0.26354,0.14928 -0.7089,0.38614 -0.9891,0.52667 -0.28064,0.14053 -0.77768,0.36988 -1.105,0.50999 -0.32777,0.14012 -0.92363,0.36613 -1.3252,0.50249 -0.40115,0.13635 -1.0204,0.32234 -1.3761,0.41325 -0.35528,0.0909 -0.90908,0.21141 -1.2302,0.26813 -0.32109,0.0563 -0.79943,0.13261 -1.0634,0.16888 -0.26354,0.0363 -0.93323,0.0767 -1.4878,0.0901 -0.64844,0.0154 -1.2214,0.006 -1.6054,-0.0271 -0.33,-0.0278 -0.852,-0.0953 -1.1618,-0.15075 -0.30975,-0.0547 -0.6885,-0.13275 -0.8415,-0.17325 l -0.279,-0.0743 -0.828,-1.251 c -0.45578,-0.68805 -1.0609,-1.5888 -1.3448,-2.0016 -0.28356,-0.41283 -0.85905,-1.2293 -1.2785,-1.814 -0.42,-0.585 -1.0102,-1.4018 -1.3125,-1.8142 -0.303,-0.4125 -0.96675,-1.332 -1.4745,-2.043 -0.50925,-0.711 -1.122,-1.5742 -1.3628,-1.9185 -0.24075,-0.34425 -0.7755,-1.1138 -1.188,-1.71 -0.4125,-0.59625 -1.1662,-1.6972 -1.6748,-2.4465 -0.50925,-0.74851 -1.551,-2.3063 -2.3152,-3.4605 -0.76425,-1.1542 -1.659,-2.5118 -1.9882,-3.0165 -0.32925,-0.50475 -1.2015,-1.8465 -1.9372,-2.9812 -0.73575,-1.1355 -1.5615,-2.3745 -1.833,-2.7525 -0.27225,-0.37875 -0.66825,-0.90375 -0.87975,-1.1678 -0.21225,-0.264 -0.57075,-0.69525 -0.79725,-0.9585 -0.2265,-0.26325 -0.71175,-0.78 -1.0785,-1.1482 -0.36675,-0.36825 -0.882,-0.85275 -1.1445,-1.0762 -0.2625,-0.22425 -0.69525,-0.57375 -0.96225,-0.777 -0.26625,-0.20325 -0.699,-0.5085 -0.9615,-0.678 -0.26175,-0.1695 -0.62625,-0.3945 -0.81,-0.49875 -0.18375,-0.105 -0.5025,-0.27525 -0.70875,-0.378 -0.20625,-0.1035 -0.582,-0.273 -0.834,-0.37575 -0.25275,-0.1035 -0.693,-0.264 -0.98025,-0.35625 -0.28648,-0.0922 -0.73684,-0.21558 -1.0008,-0.27355 -0.26396,-0.0584 -0.70473,-0.13844 -0.97995,-0.17765 -0.33569,-0.048 -0.77475,-0.0721 -1.3344,-0.073 -0.4587,-4.2e-4 -1.012,0.0229 -1.2302,0.0525 -0.21767,0.0296 -0.66053,0.10842 -0.9837,0.17472 -0.32318,0.0667 -0.86738,0.21642 -1.2093,0.33277 -0.34194,0.11634 -0.88448,0.33986 -1.2056,0.49623 -0.32109,0.1568 -0.80565,0.42701 -1.0762,0.6009 -0.27105,0.17389 -0.66512,0.44577 -0.8757,0.60423 -0.21101,0.15846 -0.57004,0.45161 -0.79815,0.65135 -0.2281,0.19974 -0.64844,0.58214 -0.93368,0.84945 -0.28522,0.2673 -0.77227,0.75773 -1.0821,1.0904 -0.30941,0.33235 -0.71724,0.7923 -0.9057,1.0216 -0.1889,0.22935 -0.46912,0.59506 -0.62383,0.81315 -0.15429,0.21767 -0.3999,0.59631 -0.54544,0.84112 -0.14553,0.2452 -0.35028,0.63218 -0.45495,0.86108 -0.10508,0.22852 -0.25771,0.60965 -0.33985,0.84735 -0.0822,0.23769 -0.19433,0.65719 -0.24978,0.9324 -0.0584,0.28939 -0.11176,0.73767 -0.12677,1.0634 -0.0154,0.34069 -0.006,0.74351 0.0242,1.0204 0.0271,0.25187 0.0872,0.64593 0.13344,0.8757 0.0459,0.23019 0.15929,0.65094 0.25145,0.93495 0.0926,0.2844 0.26105,0.73476 0.37488,1.0008 0.11343,0.26645 0.3532,0.76559 0.5321,1.1096 0.17889,0.34402 0.49039,0.90697 0.69222,1.251 0.20141,0.34402 0.55002,0.91905 0.77437,1.2777 0.22435,0.35862 0.86235,1.3628 1.4182,2.231 0.55587,0.8682 1.2668,1.9916 1.58,2.4962 0.31358,0.50457 0.77857,1.2668 1.0329,1.6934 0.25479,0.427 0.71807,1.2222 1.03,1.7668 0.3115,0.54461 0.75308,1.3398 0.98123,1.7672 0.22809,0.42743 0.56337,1.0963 0.74517,1.4862 0.18182,0.3899 0.47455,1.0467 0.65094,1.4595 0.1764,0.41283 0.64969,1.5763 1.0521,2.5854 0.40241,1.0091 1.0083,2.5103 1.3469,3.336 0.3386,0.82567 0.76725,1.8894 0.95325,2.364 0.18598,0.47455 0.41491,1.0654 0.50957,1.3136 0.0942,0.24811 0.29315,0.78855 0.44202,1.2014 0.14887,0.41283 0.38864,1.0976 0.53293,1.522 0.14386,0.42409 0.32901,0.97785 0.41116,1.2302 0.0817,0.25228 0.2331,0.74018 0.33652,1.0842 0.103,0.34402 0.26229,0.92572 0.35403,1.2927 0.0922,0.36696 0.22435,0.97327 0.29441,1.3473 0.0701,0.37405 0.16429,0.96495 0.20975,1.3136 0.0455,0.34819 0.103,0.8586 0.12802,1.1338 0.025,0.27522 0.0559,1.1101 0.0688,1.8556 0.0146,0.81937 0.005,1.718 -0.0246,2.2726 -0.0267,0.50457 -0.0772,1.2364 -0.11217,1.6263 -0.035,0.38989 -0.12844,1.2344 -0.20808,1.8765 -0.0792,0.64218 -0.19182,1.477 -0.24978,1.8556 -0.0584,0.37822 -0.2085,1.3261 -0.33402,2.1058 -0.12552,0.77977 -0.28314,1.746 -0.35028,2.1476 -0.0676,0.40115 -0.20684,1.2831 -0.30984,1.9599 -0.10299,0.67637 -0.24394,1.6618 -0.31317,2.1892 -0.0692,0.52751 -0.15471,1.231 -0.19015,1.5638 -0.035,0.33235 -0.0909,0.93285 -0.12427,1.3344 -0.0334,0.40115 -0.0826,1.1518 -0.10925,1.668 -0.03,0.57504 -0.0396,1.5033 -0.0254,2.3978 0.0133,0.80272 0.053,1.8064 0.0884,2.231 0.0359,0.42409 0.0938,1.0342 0.12927,1.3552 0.0354,0.32109 0.10216,0.84652 0.14761,1.1676 0.0459,0.32109 0.13011,0.86527 0.18765,1.2093 0.0571,0.34402 0.17097,0.9537 0.25229,1.3552 0.0813,0.40115 0.24061,1.1142 0.35403,1.5846 0.11342,0.46996 0.27313,1.0988 0.35445,1.397 0.0817,0.29815 0.24895,0.8703 0.37238,1.2718 0.12302,0.40115 0.32609,1.03 0.45119,1.397 0.1251,0.36696 0.3311,0.94867 0.45745,1.2927 0.12635,0.34402 0.3236,0.85987 0.43785,1.1468 0.11426,0.28648 0.34903,0.84945 0.52125,1.251 0.17222,0.40115 0.4733,1.0733 0.66887,1.4929 0.19515,0.41992 0.60715,1.2548 0.91492,1.8556 0.30775,0.6009 0.7335,1.402 0.94575,1.7806 0.21225,0.37822 0.61133,1.0634 0.88658,1.522 0.27564,0.4587 0.74309,1.2076 1.0392,1.6638 0.29565,0.45661 0.75562,1.1414 1.0216,1.522 0.26646,0.38072 0.75682,1.058 1.0896,1.5054 0.33318,0.44702 0.82192,1.085 1.0858,1.4178 0.26437,0.33235 0.66845,0.8298 0.8982,1.105 0.22977,0.27522 0.59714,0.70681 0.81607,0.95865 0.21893,0.25228 0.67929,0.76815 1.0233,1.1468 0.34361,0.37864 1.0658,1.1363 1.6054,1.6834 0.53918,0.54751 1.3369,1.3282 1.7727,1.7351 0.43577,0.407 1.06,0.97748 1.3874,1.2673 0.32693,0.29023 0.91823,0.79605 1.3136,1.1242 0.3949,0.32818 0.94365,0.77475 1.2189,0.99247 0.27522,0.21768 0.80063,0.62133 1.1676,0.89655 0.36696,0.27564 0.86985,0.64635 1.118,0.82403 0.2477,0.17764 0.76395,0.53542 1.1468,0.79477 0.38281,0.2598 0.98663,0.65886 1.3424,0.88695 0.3557,0.2281 0.99368,0.62258 1.4178,0.87615 0.42451,0.25354 1.0813,0.63426 1.4595,0.8457 0.37864,0.21184 1.1197,0.60674 1.6472,0.87818 0.52751,0.27105 1.3064,0.65593 1.7306,0.8544 0.42451,0.19891 1.1,0.50248 1.5012,0.67471 0.40157,0.17263 1.0112,0.42575 1.3552,0.56253 0.34403,0.13677 0.90698,0.35236 1.251,0.47829 0.34403,0.12636 1.0104,0.35738 1.4804,0.51417 0.47038,0.15679 1.2114,0.38781 1.6472,0.51416 0.43577,0.12593 1.0458,0.29565 1.3552,0.37613 0.30983,0.0809 0.89153,0.22268 1.2927,0.31484 0.40157,0.0922 1.1238,0.24353 1.6054,0.33651 0.48164,0.0926 1.3919,0.24228 2.0224,0.33236 0.63092,0.0897 1.4753,0.19265 1.8765,0.22851 0.40157,0.0358 1.0208,0.0842 1.3761,0.10717 0.3557,0.0229 1.1438,0.0534 1.7514,0.0679 0.6622,0.0154 1.4978,0.006 2.085,-0.0233 0.53918,-0.0271 1.3673,-0.0855 1.841,-0.12927 0.47371,-0.0442 1.1213,-0.11968 1.4386,-0.16722 0.31775,-0.0479 0.84982,-0.13427 1.1822,-0.1914 0.33277,-0.0575 0.93698,-0.17806 1.3432,-0.26813 0.40615,-0.0905 1.0817,-0.25729 1.5012,-0.37155 0.41949,-0.11426 1.0538,-0.30357 1.409,-0.42033 0.3557,-0.11718 0.95618,-0.33194 1.3344,-0.47706 0.37822,-0.14511 0.95078,-0.37947 1.2718,-0.52125 0.32109,-0.14136 0.9966,-0.4687 1.5012,-0.72683 0.50457,-0.25812 1.1614,-0.61632 1.4595,-0.7965 0.29816,-0.17972 0.81818,-0.51124 1.1559,-0.73642 0.33736,-0.22518 0.87195,-0.60423 1.1884,-0.84277 0.31609,-0.23852 0.78105,-0.6059 1.0334,-0.81645 0.25229,-0.21017 0.75893,-0.66178 1.1259,-1.0029 0.36696,-0.34069 10.576,-10.534 22.689,-22.651 15.186,-15.193 22.126,-22.162 22.358,-22.456 0.18515,-0.23352 0.47663,-0.63677 0.64802,-0.89655 0.17139,-0.25938 0.44327,-0.72517 0.60423,-1.0346 0.16097,-0.30983 0.37739,-0.7794 0.48122,-1.0442 0.10384,-0.2648 0.25562,-0.70766 0.33736,-0.9837 0.0817,-0.27647 0.18556,-0.67888 0.2306,-0.8949 0.045,-0.2156 0.11467,-0.62717 0.15429,-0.91365 0.0521,-0.37196 0.073,-0.79605 0.073,-1.4804 0,-0.6843 -0.0208,-1.1084 -0.073,-1.4804 -0.0396,-0.2869 -0.10801,-0.69014 -0.15137,-0.89655 -0.0434,-0.20642 -0.14429,-0.60048 -0.22435,-0.8757 -0.0797,-0.27522 -0.22476,-0.70682 -0.32234,-0.9591 -0.0976,-0.25229 -0.3115,-0.72266 -0.47538,-1.045 -0.1643,-0.32233 -0.44411,-0.80692 -0.62217,-1.0762 -0.17764,-0.26979 -0.47704,-0.68138 -0.66428,-0.91492 -0.18723,-0.23393 -0.55627,-0.64218 -0.8202,-0.90735 -0.26354,-0.26522 -0.67637,-0.63884 -0.9174,-0.8307 -0.24061,-0.19182 -0.64677,-0.48623 -0.90195,-0.65428 -0.2552,-0.16805 -0.71473,-0.43576 -1.0216,-0.59506 -0.30649,-0.15929 -0.7923,-0.38238 -1.0792,-0.49623 -0.28731,-0.11342 -0.71891,-0.26396 -0.9591,-0.3336 -0.24061,-0.07 -0.60632,-0.16429 -0.8127,-0.21016 -0.20642,-0.0454 -0.60048,-0.11676 -0.8757,-0.15763 -0.38573,-0.058 -0.75855,-0.0751 -1.6284,-0.0759 l -1.1284,-4.2e-4 0.0742,-0.39032 c 0.0404,-0.21475 0.10259,-0.63717 0.13761,-0.93825 0.035,-0.30148 0.0638,-0.87652 0.0638,-1.2777 0,-0.40157 -0.0292,-0.98325 -0.0647,-1.2927 -0.0355,-0.30983 -0.11009,-0.79065 -0.16597,-1.0688 -0.0559,-0.27855 -0.16889,-0.72891 -0.25145,-1.0008 -0.0821,-0.2723 -0.23352,-0.70932 -0.33569,-0.97162 -0.10258,-0.26229 -0.31984,-0.73726 -0.4833,-1.0554 -0.16305,-0.31859 -0.44077,-0.79853 -0.61716,-1.0666 -0.17597,-0.26771 -0.45828,-0.66554 -0.62675,-0.8832 -0.16847,-0.21809 -0.57004,-0.65969 -0.8928,-0.9816 -0.32234,-0.32192 -0.7456,-0.71307 -0.94073,-0.86903 -0.19473,-0.15595 -0.60423,-0.44994 -0.90907,-0.65302 -0.30524,-0.2035 -0.79313,-0.49081 -1.0842,-0.63843 -0.29148,-0.14804 -0.71474,-0.34611 -0.94118,-0.43994 -0.22643,-0.0942 -0.64426,-0.24561 -0.9291,-0.33651 -0.28481,-0.0909 -0.74726,-0.21393 -1.027,-0.27314 -0.28022,-0.0596 -0.69722,-0.13636 -0.92655,-0.17055 -0.22935,-0.0346 -0.8202,-0.073 -1.3136,-0.0851 -0.49289,-0.0125 -1.0746,-0.004 -1.2927,0.0192 -0.21767,0.0229 -0.40323,0.0346 -0.41199,0.0263 -0.009,-0.008 0.0242,-0.2552 0.0725,-0.54835 0.0488,-0.29357 0.10967,-0.8148 0.13553,-1.1588 0.0271,-0.36153 0.035,-0.8982 0.0192,-1.2718 -0.015,-0.3557 -0.0554,-0.86235 -0.0901,-1.1259 -0.0342,-0.26354 -0.11969,-0.74226 -0.19016,-1.0634 -0.0701,-0.32109 -0.21016,-0.83152 -0.31149,-1.1338 -0.10092,-0.30232 -0.27856,-0.77145 -0.39449,-1.0425 -0.11593,-0.27105 -0.32359,-0.69889 -0.46204,-0.95115 -0.13802,-0.25228 -0.39281,-0.67262 -0.56586,-0.93405 -0.17347,-0.26104 -0.46662,-0.66469 -0.65178,-0.89655 -0.18556,-0.23143 -0.57212,-0.65677 -0.85942,-0.94537 -0.28732,-0.28815 -0.71933,-0.68054 -0.96038,-0.8724 -0.2406,-0.19182 -0.6722,-0.50332 -0.9591,-0.69222 -0.28647,-0.18932 -0.73809,-0.45745 -1.0029,-0.59673 -0.26479,-0.13886 -0.68221,-0.33652 -0.92782,-0.43952 -0.24561,-0.10299 -0.70807,-0.27147 -1.0279,-0.37446 -0.32025,-0.103 -0.85942,-0.24353 -1.1989,-0.31233 -0.33944,-0.0688 -0.73934,-0.13761 -0.88823,-0.15304 -0.14886,-0.0159 -0.28731,-0.038 -0.30691,-0.0492 -0.0196,-0.0113 4.6917,-4.7517 10.47,-10.534 8.5035,-8.5102 10.576,-10.605 10.874,-10.993 0.20266,-0.26396 0.4858,-0.65803 0.62884,-0.8757 0.14302,-0.21809 0.36737,-0.59339 0.49914,-0.834 0.13136,-0.24103 0.33694,-0.66303 0.45662,-0.93825 0.1201,-0.27522 0.29524,-0.73517 0.38989,-1.0216 0.0947,-0.2869 0.21976,-0.71849 0.27814,-0.9591 0.0584,-0.24103 0.14303,-0.66303 0.18848,-0.93825 0.0459,-0.27522 0.10384,-0.81315 0.12927,-1.1951 0.0342,-0.51083 0.0342,-0.88695 0,-1.4178 -0.0254,-0.39782 -0.0755,-0.90158 -0.1105,-1.1192 -0.0355,-0.21809 -0.11217,-0.61216 -0.17097,-0.8757 -0.0584,-0.26396 -0.17222,-0.68596 -0.25312,-0.93825 -0.0805,-0.25228 -0.22977,-0.66345 -0.33193,-0.9141 -0.10175,-0.25062 -0.30566,-0.69222 -0.45245,-0.98122 -0.14719,-0.2894 -0.43368,-0.77895 -0.63717,-1.0875 -0.20308,-0.309 -0.53918,-0.76815 -0.74685,-1.0204 -0.20725,-0.25228 -0.628,-0.70264 -0.93495,-1.0012 -0.30691,-0.29857 -0.6893,-0.64801 -0.84982,-0.77685 -0.16055,-0.12885 -0.4512,-0.34528 -0.64635,-0.4808 -0.19474,-0.13553 -0.51917,-0.34569 -0.72099,-0.46746 -0.20142,-0.12135 -0.65178,-0.35862 -1.0012,-0.52667 -0.34903,-0.16806 -0.88778,-0.3924 -1.1972,-0.49874 -0.30941,-0.10591 -0.74059,-0.23769 -0.95865,-0.29273 -0.21767,-0.0546 -0.59297,-0.13761 -0.834,-0.18431 -0.24061,-0.0463 -0.62383,-0.10425 -0.85065,-0.12844 -0.22726,-0.0242 -0.72433,-0.0517 -1.105,-0.0609 z m -0.0667,4.4181 c 0.37322,0.01 0.83565,0.0517 1.1468,0.10467 0.2869,0.0488 0.76605,0.16972 1.065,0.26896 0.29899,0.0988 0.74936,0.28231 1.0008,0.40741 0.25145,0.1251 0.58839,0.31192 0.74893,0.41492 0.16055,0.10342 0.44202,0.30691 0.6255,0.45202 0.18348,0.14553 0.49581,0.42868 0.69389,0.63009 0.19808,0.20099 0.4904,0.54002 0.64969,0.75353 0.15888,0.21309 0.35737,0.50206 0.44119,0.64176 0.0834,0.13927 0.23518,0.422 0.33651,0.62758 0.10176,0.20558 0.24437,0.54168 0.31692,0.74685 0.0726,0.20516 0.17598,0.55128 0.22977,0.76935 0.0542,0.21767 0.1226,0.56504 0.15221,0.77145 0.0296,0.20642 0.0538,0.67554 0.0538,1.0425 0,0.36696 -0.0246,0.8361 -0.055,1.0425 -0.03,0.20642 -0.0821,0.49623 -0.11592,0.64427 -0.0334,0.14803 -0.11802,0.44827 -0.18807,0.6672 -0.0701,0.21892 -0.20808,0.57837 -0.30733,0.79897 -0.0988,0.22059 -0.26438,0.54419 -0.36821,0.71933 -0.10341,0.17556 -0.32234,0.50165 -0.48664,0.72516 -0.24144,0.32901 -4.1458,4.2559 -20.472,20.589 -14.42,14.426 -20.272,20.308 -20.519,20.62 -0.19057,0.2406 -0.48998,0.65719 -0.66553,0.9249 -0.17556,0.26813 -0.45203,0.74685 -0.61382,1.0634 -0.16222,0.31692 -0.34611,0.69805 -0.40866,0.84735 -0.0625,0.14887 -0.2035,0.53376 -0.31275,0.85485 -0.10926,0.32109 -0.25563,0.83857 -0.32526,1.1497 -0.0697,0.31109 -0.16055,0.78983 -0.20142,1.0634 -0.0584,0.38948 -0.0738,0.74601 -0.0717,1.6442 0.002,0.84442 0.0204,1.2652 0.0709,1.5963 0.0379,0.24728 0.12551,0.70347 0.19473,1.0133 0.0692,0.31025 0.20308,0.80025 0.2969,1.0888 0.0942,0.28898 0.26021,0.73392 0.36947,0.98827 0.10925,0.25479 0.2648,0.59465 0.34569,0.75518 0.0813,0.16054 0.23477,0.43951 0.34152,0.61966 0.10676,0.18015 0.30692,0.49498 0.44453,0.70014 0.13761,0.20475 0.37404,0.52625 0.52542,0.71474 0.15137,0.18807 0.40866,0.49081 0.57128,0.67262 0.16305,0.18181 0.48956,0.50499 0.726,0.71891 0.23644,0.2135 0.64343,0.54877 0.90406,0.74476 0.26104,0.19599 0.67136,0.47663 0.91237,0.62425 0.24061,0.14762 0.64301,0.37113 0.89408,0.49707 0.25103,0.12551 0.63925,0.30482 0.8628,0.39781 0.22309,0.093 0.63675,0.24269 0.91822,0.33277 0.2819,0.0901 0.77603,0.22142 1.098,0.2919 0.32234,0.0709 0.83565,0.15763 1.1405,0.19348 0.3211,0.038 0.90571,0.0659 1.3886,0.0668 0.4587,7.5e-4 1.0312,-0.0208 1.2718,-0.0476 0.24103,-0.0271 0.59714,-0.0767 0.7923,-0.1105 0.19516,-0.0337 0.39782,-0.0722 0.45036,-0.0855 l 0.0963,-0.0238 -0.0337,0.32818 c -0.0184,0.18056 -0.0317,0.73141 -0.0292,1.2248 0.002,0.58713 0.0283,1.0754 0.0742,1.4157 0.0388,0.28522 0.11885,0.73558 0.17806,1.0008 0.0588,0.26479 0.17222,0.69722 0.25186,0.9612 0.0796,0.26354 0.22644,0.67929 0.3261,0.92325 0.10008,0.24394 0.27897,0.63801 0.39782,0.8757 0.11884,0.23769 0.32859,0.62175 0.46579,0.8532 0.13761,0.23185 0.42909,0.66345 0.64802,0.9591 0.2698,0.36445 0.62841,0.76725 1.1113,1.2489 0.43743,0.43702 0.9057,0.85567 1.213,1.0858 0.27522,0.206 0.67888,0.48539 0.89655,0.62092 0.2181,0.1351 0.63093,0.36278 0.9174,0.50582 0.2869,0.14302 0.7089,0.33401 0.93825,0.42492 0.22935,0.0909 0.60465,0.22518 0.834,0.29857 0.22935,0.0734 0.60465,0.17764 0.834,0.23185 0.22935,0.0542 0.67971,0.13803 1.0008,0.1864 0.33527,0.0509 0.9132,0.0988 1.3586,0.11301 0.48122,0.015 0.97868,0.005 1.3136,-0.0259 0.29648,-0.028 0.7548,-0.0872 1.0184,-0.13219 0.26354,-0.0446 0.51208,-0.0913 0.55169,-0.10383 l 0.0722,-0.0225 -0.0254,0.78435 c -0.0158,0.48747 -0.007,0.98955 0.0246,1.3264 0.0271,0.29815 0.0859,0.75765 0.13052,1.0216 0.0446,0.26354 0.15638,0.75645 0.24812,1.0946 0.0922,0.33819 0.25062,0.8298 0.35195,1.0925 0.10174,0.26271 0.30441,0.71807 0.45036,1.0112 0.14636,0.29357 0.37654,0.71224 0.51166,0.92993 0.1351,0.21767 0.41408,0.62133 0.62007,0.89655 0.2281,0.30524 0.63551,0.76147 1.0438,1.1692 0.38989,0.38906 0.87067,0.81855 1.1497,1.027 0.26397,0.19724 0.64844,0.46495 0.85485,0.59464 0.20642,0.1301 0.62884,0.36446 0.93825,0.52166 0.30984,0.1568 0.8223,0.3824 1.1392,0.50082 0.31734,0.11843 0.86153,0.28731 1.2093,0.37531 0.3482,0.088 0.8019,0.18347 1.0083,0.21224 0.20642,0.0288 0.38907,0.0642 0.40575,0.0788 0.0166,0.0142 -6.3071,6.3605 -14.053,14.102 -9.6945,9.69 -14.246,14.211 -14.604,14.507 -0.28606,0.23686 -0.7644,0.61299 -1.0634,0.83528 -0.29857,0.22226 -0.78728,0.5642 -1.0855,0.75937 -0.29856,0.19515 -0.77685,0.48956 -1.0634,0.65385 -0.28647,0.1643 -0.79275,0.43661 -1.1254,0.60507 -0.33234,0.16889 -0.87652,0.42368 -1.2093,0.56629 -0.33235,0.14303 -0.8724,0.35987 -1.1993,0.48205 -0.32735,0.12218 -0.89948,0.31608 -1.2718,0.43076 -0.37238,0.11509 -1.015,0.29357 -1.4278,0.39657 -0.41283,0.10342 -1.108,0.25312 -1.545,0.33318 -0.4366,0.0801 -1.0934,0.1839 -1.4595,0.23102 -0.3657,0.0471 -0.97455,0.11426 -1.3532,0.14928 -0.37822,0.035 -1.2977,0.0751 -2.0433,0.0888 -0.83445,0.015 -1.6838,0.006 -2.2101,-0.0233 -0.46995,-0.0263 -1.0612,-0.0671 -1.3136,-0.0905 -0.25228,-0.0238 -0.70639,-0.0705 -1.0091,-0.10425 -0.30316,-0.0337 -0.74393,-0.0888 -0.97995,-0.12217 -0.23644,-0.0334 -0.76478,-0.11801 -1.1747,-0.18807 -0.40949,-0.0696 -1.0946,-0.20225 -1.522,-0.29399 -0.427,-0.0917 -1.1146,-0.25186 -1.5274,-0.3557 -0.41283,-0.10383 -1.0412,-0.27355 -1.397,-0.37738 -0.35528,-0.10342 -1.0216,-0.3115 -1.4804,-0.46162 -0.4587,-0.15012 -1.1342,-0.38447 -1.5012,-0.52083 -0.36696,-0.13637 -0.8361,-0.314 -1.0425,-0.39532 -0.20641,-0.0809 -0.8136,-0.3361 -1.3494,-0.56712 -0.53542,-0.23102 -1.53,-0.69514 -2.2101,-1.0317 -0.67971,-0.33651 -1.5813,-0.80355 -2.0032,-1.0379 -0.422,-0.23435 -1.163,-0.66345 -1.6472,-0.95408 -0.48372,-0.29022 -1.3769,-0.85905 -1.985,-1.2635 -0.60757,-0.40449 -1.4332,-0.97575 -1.8348,-1.2689 -0.40115,-0.29314 -1.0487,-0.78105 -1.4386,-1.0834 -0.38989,-0.30275 -1.0091,-0.80063 -1.3761,-1.1063 -0.36696,-0.30524 -0.90157,-0.76147 -1.1884,-1.0137 -0.28648,-0.25186 -0.8682,-0.78142 -1.2927,-1.1772 -0.42408,-0.39573 -1.2043,-1.1576 -1.733,-1.693 -0.52876,-0.53542 -1.1818,-1.2147 -1.4516,-1.5095 -0.26939,-0.29482 -0.48372,-0.5421 -0.47621,-0.5496 0.007,-0.007 0.25687,0.0513 0.55503,0.1301 0.29773,0.0788 0.90742,0.21809 1.3544,0.30899 0.44744,0.0909 1.1605,0.21101 1.5846,0.2673 0.42451,0.0563 1.0154,0.12636 1.3136,0.15638 0.33652,0.0337 1.1038,0.0542 2.0224,0.0538 1.1254,-7.5e-4 1.6351,-0.0184 2.1267,-0.0734 0.3557,-0.0401 0.89325,-0.10884 1.1947,-0.15346 0.30149,-0.0446 0.69555,-0.11092 0.8757,-0.1472 0.18014,-0.0367 0.633,-0.14011 1.0066,-0.22976 0.37363,-0.0901 1.0117,-0.27481 1.4178,-0.41074 0.40615,-0.13595 1.01,-0.36196 1.3415,-0.50208 0.33152,-0.14052 0.90652,-0.41241 1.2781,-0.60423 0.37113,-0.19182 0.93323,-0.51124 1.2485,-0.70973 0.31526,-0.1985 0.82028,-0.54503 1.1222,-0.7698 0.30232,-0.22518 0.75308,-0.58505 1.0021,-0.80025 0.24937,-0.21517 0.70515,-0.64469 1.0129,-0.95453 0.30816,-0.31024 0.75975,-0.80437 1.0037,-1.0988 0.24437,-0.2944 0.61299,-0.76725 0.81938,-1.0513 0.20642,-0.28398 0.53376,-0.76522 0.72724,-1.0696 0.19349,-0.30483 0.44286,-0.73225 0.55419,-0.95033 0.11719,-0.23018 0.2206,-0.50206 0.24604,-0.64718 0.0246,-0.13719 0.0325,-0.3436 0.0179,-0.4587 -0.0146,-0.11467 -0.0567,-0.30232 -0.0934,-0.417 -0.0371,-0.11467 -0.12719,-0.30232 -0.20058,-0.417 -0.073,-0.11467 -0.2131,-0.28105 -0.3115,-0.36946 -0.0984,-0.0888 -0.29607,-0.216 -0.43952,-0.28314 -0.14344,-0.0668 -0.37989,-0.14095 -0.52625,-0.16472 -0.18807,-0.03 -0.34403,-0.0288 -0.53668,0.005 -0.14928,0.0259 -0.38406,0.10091 -0.52167,0.1668 -0.13761,0.0659 -0.34402,0.21183 -0.4587,0.32442 -0.12969,0.12761 -0.36279,0.46329 -0.61674,0.8886 -0.22476,0.37613 -0.5275,0.85065 -0.67303,1.0542 -0.14553,0.2035 -0.42159,0.56962 -0.61341,0.81315 -0.19182,0.24353 -0.65803,0.7539 -1.0366,1.1347 -0.37822,0.38031 -0.88283,0.84735 -1.1205,1.0379 -0.23811,0.19099 -0.66012,0.49998 -0.93825,0.68722 -0.27814,0.18723 -0.6989,0.44952 -0.93495,0.58296 -0.23561,0.13344 -0.6868,0.35987 -1.0024,0.50374 -0.31526,0.14386 -0.8073,0.34611 -1.093,0.44952 -0.28564,0.10342 -0.79185,0.26397 -1.1242,0.35696 -0.33234,0.093 -0.89527,0.22518 -1.251,0.29356 -0.3557,0.0688 -0.8715,0.15346 -1.1468,0.18849 -0.27522,0.035 -0.8382,0.0855 -1.251,0.11175 -0.44202,0.0283 -1.1021,0.0375 -1.6054,0.0221 -0.47037,-0.0142 -1.0705,-0.0454 -1.3344,-0.0692 -0.26354,-0.0233 -0.68596,-0.0717 -0.93825,-0.10674 -0.25228,-0.035 -0.76687,-0.1201 -1.1434,-0.18891 -0.37655,-0.0684 -1.0145,-0.20933 -1.4178,-0.31233 -0.40324,-0.10341 -1.0934,-0.30774 -1.5341,-0.45494 -0.44077,-0.14679 -1.0554,-0.37114 -1.3665,-0.49832 -0.31109,-0.12761 -0.834,-0.35987 -1.1614,-0.51625 -0.32776,-0.15679 -0.79185,-0.39406 -1.0312,-0.52834 -0.23935,-0.13385 -0.60715,-0.35361 -0.81772,-0.48831 l -0.38198,-0.24435 -0.49748,-0.77978 c -0.27356,-0.4291 -0.6868,-1.0992 -0.91785,-1.4891 -0.23102,-0.3899 -0.58255,-0.99998 -0.7806,-1.3552 -0.19808,-0.35571 -0.64593,-1.2189 -0.99458,-1.9182 -0.34902,-0.69973 -0.75937,-1.5533 -0.91154,-1.8974 -0.15221,-0.34403 -0.39824,-0.91823 -0.54711,-1.276 -0.14887,-0.35779 -0.39281,-0.97703 -0.54168,-1.3761 -0.14928,-0.39907 -0.37738,-1.0354 -0.50665,-1.4136 -0.12969,-0.37864 -0.33819,-1.0312 -0.46329,-1.4512 -0.12552,-0.4195 -0.32985,-1.1606 -0.45453,-1.6472 -0.12427,-0.48622 -0.29357,-1.1997 -0.37572,-1.5859 -0.0822,-0.38573 -0.2231,-1.1363 -0.31275,-1.668 -0.0901,-0.53126 -0.21017,-1.379 -0.26772,-1.8836 -0.0571,-0.50457 -0.12843,-1.1897 -0.15846,-1.522 -0.0342,-0.38406 -0.0534,-1.2668 -0.053,-2.4186 4.2e-4,-1.0892 0.0217,-2.0637 0.053,-2.4394 0.0288,-0.34403 0.10008,-1.0946 0.15804,-1.668 0.058,-0.57338 0.18057,-1.5776 0.27231,-2.231 0.0913,-0.65386 0.25854,-1.761 0.37113,-2.4603 0.11217,-0.69973 0.31775,-1.9636 0.45661,-2.8094 0.13844,-0.84525 0.32651,-2.05 0.41783,-2.6771 0.0913,-0.62675 0.20308,-1.4457 0.24854,-1.8194 0.0455,-0.37404 0.11968,-1.055 0.16555,-1.5137 0.0455,-0.4587 0.10716,-1.1342 0.13635,-1.5012 0.0329,-0.41033 0.0534,-1.4136 0.0538,-2.6062 4.2e-4,-1.2548 -0.0183,-2.1671 -0.0542,-2.5854 -0.03,-0.35571 -0.1005,-1.005 -0.15595,-1.4432 -0.0555,-0.43827 -0.13928,-1.02 -0.18557,-1.2927 -0.0463,-0.27271 -0.1497,-0.80062 -0.22976,-1.173 -0.0797,-0.37238 -0.22978,-0.98872 -0.33319,-1.3699 -0.10341,-0.38114 -0.29023,-1.0241 -0.41533,-1.4287 -0.1251,-0.40491 -0.38573,-1.2051 -0.57921,-1.7785 -0.19348,-0.57338 -0.47372,-1.3803 -0.62299,-1.7931 -0.14929,-0.41283 -0.42284,-1.1484 -0.60799,-1.6346 -0.18557,-0.48622 -0.50499,-1.3027 -0.71016,-1.814 -0.20516,-0.51166 -0.54084,-1.334 -0.74601,-1.8273 -0.20475,-0.49372 -0.73892,-1.8169 -1.1872,-2.9398 -0.44828,-1.1234 -0.9837,-2.4365 -1.1906,-2.9182 -0.20642,-0.48164 -0.53501,-1.2135 -0.73017,-1.6263 -0.19516,-0.41283 -0.51291,-1.0508 -0.70556,-1.4178 -0.19308,-0.36696 -0.57296,-1.0612 -0.84443,-1.5429 -0.27188,-0.48164 -0.73183,-1.2794 -1.0229,-1.7722 -0.29065,-0.4929 -0.65928,-1.1126 -0.81938,-1.3761 -0.15971,-0.26355 -0.51291,-0.8361 -0.78435,-1.2718 -0.27147,-0.43577 -0.91905,-1.4587 -1.4386,-2.2726 -0.51999,-0.81443 -1.1614,-1.8277 -1.4253,-2.2518 -0.26354,-0.42451 -0.59839,-0.97785 -0.74392,-1.2302 -0.14553,-0.25229 -0.40908,-0.74477 -0.58589,-1.0946 -0.1768,-0.34986 -0.39781,-0.86572 -0.49122,-1.1468 -0.0934,-0.28105 -0.1914,-0.65177 -0.21851,-0.82357 -0.0267,-0.17223 -0.038,-0.4537 -0.0246,-0.6255 0.0133,-0.17223 0.0646,-0.44411 0.11426,-0.60465 0.0496,-0.16055 0.15595,-0.42326 0.23643,-0.5838 0.0801,-0.16055 0.24353,-0.44202 0.36279,-0.6255 0.11927,-0.18348 0.36822,-0.52125 0.55295,-0.7506 0.18514,-0.22935 0.51291,-0.60465 0.72892,-0.834 0.216,-0.22935 0.6772,-0.69264 1.025,-1.0296 0.34777,-0.33694 0.80692,-0.75225 1.02,-0.9228 0.21267,-0.17097 0.54668,-0.41658 0.74142,-0.54585 0.19516,-0.12969 0.54585,-0.32901 0.7794,-0.44328 0.23394,-0.11384 0.64677,-0.27105 0.9174,-0.34861 0.27105,-0.0776 0.66554,-0.1643 0.87735,-0.19307 0.25271,-0.0342 0.62425,-0.0438 1.0842,-0.0279 0.46955,0.0163 0.81563,0.0513 1.0538,0.10633 0.19474,0.045 0.56129,0.14887 0.81398,0.23061 0.2527,0.0821 0.72183,0.27939 1.0425,0.43868 0.32067,0.15929 0.72391,0.37905 0.89572,0.48831 0.17222,0.10967 0.52083,0.35278 0.77475,0.54001 0.25437,0.18765 0.65761,0.51 0.89655,0.71641 0.23894,0.20642 0.70682,0.65469 1.0392,0.99623 0.33277,0.34152 0.79358,0.84652 1.0241,1.1226 0.2306,0.27564 0.58839,0.726 0.79477,1.0004 0.20642,0.27438 0.49832,0.67679 0.64927,0.8949 0.15054,0.21767 0.72349,1.0904 1.2727,1.939 0.54918,0.84862 1.4269,2.1997 1.9503,3.0024 0.52334,0.80272 1.733,2.6321 2.6888,4.0658 0.9558,1.4332 2.0912,3.1221 2.5241,3.753 0.43242,0.6305 1.1518,1.6722 1.5988,2.3144 0.44661,0.64218 1.1601,1.6555 1.585,2.2518 0.42492,0.59631 1.2439,1.7314 1.8206,2.5228 0.57672,0.79102 1.2548,1.7293 1.5074,2.085 0.25229,0.35528 0.66553,0.94657 0.91823,1.3136 0.2527,0.36696 0.75937,1.1176 1.1264,1.668 0.36653,0.55044 0.93029,1.4136 1.2523,1.9182 0.32192,0.50457 0.81937,1.3018 1.105,1.7722 0.28607,0.46995 0.70098,1.1692 0.92197,1.5542 0.22143,0.38447 0.52751,0.92865 0.68097,1.2093 0.15303,0.28022 0.47121,0.897 0.70723,1.3699 0.23561,0.47288 0.54377,1.1296 0.6843,1.4595 0.14053,0.32985 0.32067,0.78728 0.40074,1.0166 0.0805,0.22935 0.20183,0.62258 0.27022,0.87405 0.0688,0.25103 0.18431,0.57003 0.25688,0.7089 0.073,0.13927 0.25353,0.37279 0.4049,0.52291 0.15012,0.14887 0.37864,0.3236 0.50749,0.38823 0.12885,0.0642 0.33486,0.14387 0.45787,0.17681 0.12302,0.0325 0.38489,0.0596 0.58129,0.06 0.206,0 0.45287,-0.0275 0.5838,-0.0663 0.12468,-0.0363 0.33903,-0.12552 0.47664,-0.19807 0.13761,-0.0722 0.36279,-0.24561 0.5004,-0.3849 0.15012,-0.1522 0.30566,-0.3657 0.38823,-0.53334 0.0759,-0.15345 0.16471,-0.40532 0.19724,-0.5592 0.0325,-0.15429 0.0596,-0.36862 0.0601,-0.47663 4.2e-4,-0.108 -0.063,-0.44577 -0.14136,-0.7506 -0.0757,-0.31125 -0.24225,-0.85125 -0.36975,-1.2068 -0.126,-0.3555 -0.357,-0.9465 -0.513,-1.314 -0.156,-0.36675 -0.50175,-1.1078 -0.76875,-1.647 -0.26775,-0.53925 -0.5805,-1.1535 -0.696,-1.365 -0.11593,-0.21225 -0.19807,-0.39281 -0.18265,-0.40198 0.015,-0.009 0.38406,-0.0188 0.81983,-0.0217 0.43576,-0.003 1.1021,-0.0342 1.4804,-0.0692 0.37863,-0.0346 0.95077,-0.10091 1.2718,-0.1472 0.32109,-0.0459 0.89362,-0.1497 1.2718,-0.22977 0.37863,-0.0805 0.93202,-0.21267 1.2302,-0.29357 0.29815,-0.0809 0.83317,-0.24186 1.1884,-0.35778 0.3557,-0.11593 0.85275,-0.29065 1.105,-0.38781 0.25228,-0.0976 0.66511,-0.26522 0.9174,-0.37239 0.25228,-0.10759 0.78772,-0.35987 1.1897,-0.56086 0.40241,-0.201 0.9558,-0.49415 1.2302,-0.65136 0.27439,-0.15679 0.75518,-0.44827 1.0679,-0.64718 0.31275,-0.19933 0.78187,-0.51457 1.0425,-0.70056 0.26062,-0.18598 0.67303,-0.49372 0.91695,-0.68346 0.24352,-0.18973 0.67512,-0.54043 0.9591,-0.7794 0.3255,-0.2745 8.25,-8.163 21.45,-21.354 14.348,-14.337 21.038,-20.997 21.262,-21.165 0.18306,-0.1351 0.50206,-0.34777 0.7089,-0.47246 0.20683,-0.12468 0.51708,-0.29148 0.68888,-0.37071 0.17222,-0.0792 0.52625,-0.21642 0.7869,-0.30483 0.26105,-0.088 0.66428,-0.19891 0.89655,-0.24645 0.23227,-0.0471 0.57254,-0.103 0.756,-0.12344 0.18348,-0.0208 0.61508,-0.0304 0.9591,-0.0221 z m -13.365,41.019 c 0.35945,-0.003 0.84608,0.0213 1.0963,0.0546 0.24771,0.0329 0.66554,0.11718 0.92911,0.18765 0.26313,0.0701 0.62341,0.18514 0.80062,0.2552 0.17723,0.0701 0.53835,0.23936 0.8019,0.37572 0.26354,0.13678 0.65761,0.37447 0.87525,0.52834 0.21809,0.15429 0.63301,0.51458 0.9228,0.80145 0.28982,0.28648 0.63551,0.6697 0.76815,0.85155 0.13261,0.18139 0.33986,0.49706 0.46079,0.70098 0.12051,0.20433 0.30483,0.56712 0.4095,0.80602 0.10466,0.23936 0.24769,0.62759 0.31816,0.8628 0.0701,0.23519 0.16388,0.63885 0.20809,0.89701 0.0446,0.25811 0.0926,0.6993 0.10717,0.97994 0.0155,0.29607 0.006,0.71141 -0.0217,0.98993 -0.0267,0.26354 -0.0863,0.6672 -0.13261,0.89655 -0.0463,0.22935 -0.1497,0.61382 -0.22977,0.85485 -0.0805,0.24061 -0.22642,0.60799 -0.32526,0.81607 -0.0984,0.20851 -0.25854,0.51458 -0.35569,0.68055 -0.0972,0.16638 -0.31985,0.49331 -0.49499,0.72683 -0.24769,0.32985 -1.7727,1.8794 -6.825,6.9351 -4.2154,4.2184 -6.6236,6.5982 -6.8396,6.7596 -0.18348,0.13678 -0.47413,0.33944 -0.64635,0.44994 -0.1718,0.1105 -0.51917,0.29941 -0.77145,0.42034 -0.25229,0.12051 -0.65636,0.28481 -0.89783,0.36487 -0.24144,0.0801 -0.63759,0.1839 -0.8799,0.23061 -0.24227,0.0467 -0.68221,0.10466 -0.97747,0.12884 -0.37322,0.03 -0.70139,0.0305 -1.0754,0 -0.29607,-0.0238 -0.73141,-0.0809 -0.96742,-0.12635 -0.23602,-0.0455 -0.63176,-0.1497 -0.87945,-0.23184 -0.2477,-0.0817 -0.62425,-0.23019 -0.83648,-0.32943 -0.21267,-0.0997 -0.54501,-0.27648 -0.7385,-0.39324 -0.19307,-0.11676 -0.48914,-0.31775 -0.65678,-0.44661 -0.16805,-0.12885 -0.41825,-0.33901 -0.55586,-0.46745 -0.13761,-0.12844 -0.38739,-0.38406 -0.55461,-0.56754 -0.16763,-0.18389 -0.43659,-0.53 -0.59756,-0.76852 -0.16096,-0.23894 -0.39615,-0.64051 -0.5225,-0.8928 -0.12635,-0.25188 -0.30357,-0.67846 -0.39323,-0.9474 -0.0901,-0.26897 -0.20058,-0.66471 -0.24562,-0.87945 -0.0451,-0.21476 -0.10466,-0.65844 -0.1326,-0.9858 -0.0392,-0.46371 -0.0396,-0.72141 -7.5e-4,-1.1676 0.0275,-0.31484 0.088,-0.75563 0.13386,-0.97951 0.0463,-0.22392 0.15012,-0.60881 0.2306,-0.85484 0.0805,-0.24645 0.25687,-0.67304 0.39239,-0.94823 0.13553,-0.27522 0.35362,-0.66011 0.48456,-0.85485 0.13094,-0.19516 0.3557,-0.4954 0.49998,-0.6672 0.14387,-0.17222 3.1858,-3.2334 6.7596,-6.803 4.6337,-4.6282 6.599,-6.5644 6.8505,-6.7487 0.19391,-0.1422 0.52209,-0.3582 0.72975,-0.48039 0.20725,-0.12218 0.55294,-0.2994 0.7677,-0.39364 0.21476,-0.0947 0.59965,-0.23477 0.85485,-0.31192 0.25521,-0.0767 0.6426,-0.16972 0.86025,-0.20641 0.21809,-0.0371 0.45245,-0.0738 0.52125,-0.0822 0.0688,-0.008 0.41617,-0.0175 0.77145,-0.0204 z m 13.427,14.566 c 0.50832,0.008 0.94822,0.0384 1.1738,0.0801 0.19849,0.0367 0.58338,0.13386 0.85485,0.21642 0.27147,0.0822 0.66303,0.22685 0.86947,0.32192 0.20642,0.0947 0.54544,0.27272 0.75353,0.39574 0.20766,0.12301 0.50624,0.31983 0.66303,0.43743 0.15679,0.11717 0.45327,0.37363 0.65928,0.56962 0.20599,0.19599 0.48121,0.48789 0.61215,0.64886 0.13052,0.16054 0.33527,0.43784 0.45453,0.61549 0.11926,0.17806 0.31859,0.525 0.44244,0.77145 0.12384,0.24645 0.29106,0.6401 0.37196,0.87488 0.0809,0.23435 0.19724,0.65635 0.25854,0.93824 0.0888,0.40824 0.11551,0.66136 0.13177,1.2518 0.0129,0.4587 0.002,0.89445 -0.03,1.1468 -0.0275,0.22352 -0.11301,0.65052 -0.18973,0.94868 -0.0767,0.29815 -0.21643,0.72974 -0.31025,0.95909 -0.0938,0.22936 -0.28314,0.61425 -0.42117,0.85485 -0.13761,0.24103 -0.3336,0.55003 -0.43577,0.68639 -0.10216,0.13677 -0.32609,0.40866 -0.49706,0.60465 -0.17138,0.19599 -2.9252,2.9653 -6.1203,6.1545 -4.6758,4.6671 -5.8901,5.8576 -6.2258,6.1028 -0.22935,0.16721 -0.58588,0.39823 -0.7923,0.51291 -0.20641,0.11467 -0.57754,0.29148 -0.82485,0.39323 -0.24728,0.10174 -0.69764,0.24853 -1.0008,0.32609 -0.30315,0.0776 -0.77647,0.16388 -1.0516,0.19182 -0.29857,0.0308 -0.7189,0.0412 -1.0425,0.0263 -0.29815,-0.0137 -0.71098,-0.0546 -0.9174,-0.0905 -0.20641,-0.0363 -0.57963,-0.12301 -0.82942,-0.19349 -0.24979,-0.07 -0.60632,-0.19265 -0.7923,-0.27188 -0.18599,-0.0796 -0.49749,-0.23061 -0.69264,-0.33527 -0.19516,-0.10509 -0.46704,-0.26688 -0.60465,-0.35946 -0.13761,-0.0926 -0.38156,-0.27563 -0.5421,-0.40615 -0.16055,-0.13052 -0.45162,-0.40407 -0.64718,-0.60757 -0.19516,-0.20392 -0.44411,-0.48622 -0.55295,-0.62842 -0.10883,-0.14178 -0.29357,-0.41241 -0.41075,-0.60132 -0.11676,-0.18848 -0.29523,-0.51249 -0.39615,-0.72016 -0.10091,-0.20724 -0.25853,-0.60798 -0.35069,-0.89032 -0.0917,-0.28231 -0.20683,-0.7335 -0.25521,-1.0024 -0.0696,-0.38489 -0.0888,-0.65803 -0.0892,-1.2814 -7.5e-4,-0.63217 0.0171,-0.89115 0.0884,-1.2814 0.0492,-0.26896 0.16472,-0.72182 0.25729,-1.0062 0.0926,-0.28439 0.26855,-0.72099 0.39115,-0.97035 0.1226,-0.24937 0.35487,-0.65052 0.51625,-0.89115 0.16137,-0.24103 0.45744,-0.61633 0.6576,-0.834 0.20058,-0.21809 2.9374,-2.969 6.0824,-6.1136 4.007,-4.0065 5.8364,-5.8076 6.1132,-6.0194 0.21767,-0.16638 0.56504,-0.40199 0.7719,-0.52375 0.20642,-0.12177 0.52209,-0.28774 0.70098,-0.36947 0.17889,-0.0813 0.52625,-0.21267 0.77145,-0.29148 0.24561,-0.0784 0.58714,-0.17389 0.75893,-0.21142 0.17222,-0.0375 0.43493,-0.0851 0.5838,-0.1055 0.14928,-0.0208 0.63717,-0.0313 1.0842,-0.0238 z m 12.676,14.431 c 0.30983,0.009 0.7869,0.055 1.0604,0.10216 0.27354,0.0471 0.7239,0.16138 1.0008,0.25354 0.27688,0.0922 0.67554,0.25145 0.88612,0.3532 0.21017,0.10216 0.57629,0.31525 0.8136,0.47413 0.23728,0.15846 0.59173,0.42826 0.78773,0.60006 0.19599,0.17139 0.49998,0.48247 0.67553,0.69139 0.17514,0.20933 0.41116,0.51708 0.52375,0.68388 0.11301,0.16721 0.30984,0.51291 0.43827,0.76853 0.12802,0.25562 0.30692,0.6868 0.3974,0.95827 0.0905,0.27105 0.20225,0.72767 0.24853,1.0146 0.0463,0.28648 0.0959,0.69014 0.11009,0.89655 0.0142,0.20642 0.006,0.59089 -0.0187,0.85485 -0.0242,0.26354 -0.0834,0.67554 -0.13136,0.9153 -0.0479,0.23978 -0.15179,0.62425 -0.2306,0.85485 -0.0792,0.2306 -0.23644,0.60674 -0.34945,0.8361 -0.113,0.22935 -0.29648,0.55753 -0.40741,0.72975 -0.11133,0.1718 -0.3165,0.45328 -0.45661,0.6255 -0.14012,0.1718 -2.6154,2.6684 -5.5015,5.5478 -3.979,3.9703 -5.3306,5.2942 -5.594,5.4798 -0.19099,0.13469 -0.52876,0.34528 -0.7506,0.46787 -0.22184,0.12261 -0.59089,0.29649 -0.8202,0.38615 -0.22935,0.0901 -0.57629,0.20391 -0.77145,0.25354 -0.19474,0.0496 -0.50457,0.11717 -0.68805,0.15012 -0.18348,0.0334 -0.57755,0.0717 -0.8757,0.0859 -0.32901,0.0154 -0.7139,0.005 -0.97995,-0.0251 -0.24061,-0.0275 -0.61424,-0.0884 -0.83025,-0.13469 -0.21559,-0.0463 -0.58172,-0.1497 -0.81315,-0.22935 -0.23144,-0.0801 -0.60798,-0.23893 -0.83693,-0.35278 -0.22893,-0.11426 -0.59463,-0.32734 -0.81315,-0.47329 -0.2185,-0.14595 -0.54376,-0.3974 -0.72266,-0.55837 -0.17931,-0.16096 -0.45703,-0.43909 -0.61757,-0.6184 -0.16013,-0.1789 -0.39991,-0.4854 -0.53251,-0.68013 -0.13261,-0.19516 -0.31859,-0.49665 -0.41367,-0.67012 -0.0947,-0.17348 -0.24853,-0.50833 -0.34194,-0.74351 -0.0934,-0.23561 -0.22476,-0.65636 -0.2919,-0.93533 -0.0671,-0.27897 -0.14136,-0.66637 -0.16513,-0.8607 -0.0238,-0.19432 -0.043,-0.57046 -0.043,-0.83527 0,-0.2648 0.0192,-0.64093 0.043,-0.83528 0.0238,-0.19432 0.0988,-0.5838 0.1668,-0.8661 0.0676,-0.28189 0.21267,-0.73225 0.32235,-1.0008 0.10966,-0.26813 0.31692,-0.68596 0.46119,-0.92782 0.14429,-0.24228 0.36613,-0.57046 0.49248,-0.72975 0.12636,-0.1593 2.5696,-2.6338 5.429,-5.4986 2.8598,-2.8648 5.3401,-5.3213 5.5119,-5.459 0.17222,-0.13761 0.43911,-0.33111 0.5934,-0.43035 0.15429,-0.0992 0.46536,-0.27272 0.69054,-0.38614 0.2256,-0.11301 0.63384,-0.28106 0.9078,-0.37364 0.27397,-0.0926 0.6597,-0.19807 0.85733,-0.23435 0.19766,-0.0367 0.50707,-0.0834 0.68805,-0.10383 0.18056,-0.0208 0.58213,-0.0304 0.89152,-0.0213 z m -91.838,-73.368 c -0.16138,0.002 -0.40366,0.0304 -0.53835,0.063 -0.13427,0.0325 -0.35945,0.11968 -0.5004,0.19349 -0.14053,0.0738 -0.36863,0.24769 -0.50666,0.38572 -0.13803,0.13803 -0.31108,0.36529 -0.38447,0.50457 -0.0734,0.1397 -0.16221,0.36404 -0.19724,0.49873 -0.035,0.1347 -0.0638,0.38698 -0.0638,0.56045 0,0.17931 0.0334,0.43577 0.0776,0.59423 0.0425,0.15345 0.14095,0.38655 0.21892,0.51833 0.10342,0.17472 1.6868,1.7998 5.9093,6.0652 l 5.7683,5.8263 0.29441,0.15471 c 0.16221,0.0851 0.39073,0.18056 0.50791,0.21141 0.11718,0.0313 0.36321,0.0571 0.54669,0.0571 0.18348,0 0.43451,-0.0271 0.55752,-0.0596 0.12302,-0.0329 0.3286,-0.11259 0.45662,-0.1768 0.12802,-0.0646 0.33985,-0.21601 0.47079,-0.33736 0.13135,-0.12092 0.29815,-0.31317 0.37113,-0.42659 0.073,-0.11384 0.18014,-0.34319 0.23811,-0.50999 0.0797,-0.22977 0.1055,-0.38823 0.10675,-0.65719 4.2e-4,-0.21727 -0.0271,-0.4512 -0.0717,-0.60466 -0.0396,-0.13761 -0.13093,-0.36279 -0.20224,-0.50039 -0.10717,-0.206 -0.50832,-0.63176 -2.2806,-2.4186 -1.183,-1.1926 -3.788,-3.8222 -5.7892,-5.8438 l -3.6382,-3.6758 -0.28425,-0.14926 c -0.15637,-0.0821 -0.39406,-0.17805 -0.52875,-0.21309 -0.13469,-0.035 -0.37697,-0.0621 -0.53835,-0.0605 z m 52.394,1.3198 c -0.14887,-0.0121 -0.36696,-0.007 -0.48414,0.01 -0.11717,0.0179 -0.30691,0.0634 -0.42158,0.10175 -0.11427,0.0379 -0.29149,0.12218 -0.39366,0.18681 -0.10216,0.0646 -1.2168,0.9495 -2.4769,1.9666 -1.2602,1.0166 -2.6755,2.1592 -3.1459,2.5387 -0.46996,0.37947 -1.3544,1.0938 -1.9649,1.5871 -0.61049,0.49331 -2.0112,1.6238 -3.1125,2.512 -1.776,1.4332 -2.0237,1.6472 -2.1938,1.8974 -0.1055,0.15554 -0.23102,0.3949 -0.27939,0.53251 -0.0479,0.13761 -0.0972,0.40032 -0.10884,0.5838 -0.015,0.22893 -7.5e-4,0.42283 0.0451,0.61758 0.0367,0.15638 0.11801,0.39115 0.18056,0.52125 0.0684,0.14261 0.23018,0.35528 0.40658,0.53376 0.16095,0.16305 0.38655,0.34319 0.50123,0.40074 0.11468,0.0575 0.31192,0.13927 0.43785,0.18181 0.15512,0.0525 0.3507,0.078 0.60465,0.0784 0.28314,8.3e-4 0.44953,-0.0233 0.6772,-0.0976 0.16597,-0.0542 0.39282,-0.15721 0.50416,-0.22893 0.11092,-0.0717 2.959,-2.3544 6.3284,-5.072 3.3694,-2.718 6.2108,-5.0278 6.3138,-5.1333 0.10342,-0.10592 0.24854,-0.29441 0.32318,-0.41909 0.0743,-0.12468 0.17514,-0.38489 0.22434,-0.57838 0.0692,-0.27396 0.0834,-0.422 0.0642,-0.66553 -0.0134,-0.17264 -0.063,-0.42451 -0.10968,-0.56045 -0.0471,-0.13594 -0.1351,-0.33151 -0.19599,-0.43534 -0.0605,-0.10342 -0.18472,-0.26939 -0.27605,-0.36821 -0.0913,-0.0993 -0.27814,-0.25521 -0.41492,-0.34653 -0.13677,-0.0913 -0.36445,-0.20142 -0.5054,-0.24437 -0.14095,-0.0434 -0.37863,-0.0884 -0.5275,-0.1005 z" />
    </g>
  </g>
</svg>
